<?xml version="1.0" standalone="no"?>
<!DOCTYPE svg PUBLIC "-//W3C//DTD SVG 20010904//EN"
 "http://www.w3.org/TR/2001/REC-SVG-20010904/DTD/svg10.dtd">
<svg version="1.0" xmlns="http://www.w3.org/2000/svg"
 width="776.000000pt" height="490.000000pt" viewBox="0 0 776.000000 490.000000"
 preserveAspectRatio="xMidYMid meet">

<g transform="translate(0.000000,490.000000) scale(0.100000,-0.100000)"
fill="#000000" stroke="none">
<path d="M4564 4892 c-6 -4 -86 -101 -177 -216 l-167 -209 0 -136 0 -136 -50
-23 c-90 -42 -135 -153 -97 -244 l15 -36 -155 -209 c-85 -114 -164 -221 -176
-238 l-22 -30 45 33 c80 58 96 75 215 237 65 88 119 161 120 163 2 2 21 -6 44
-17 26 -14 59 -21 96 -21 30 0 55 -1 55 -3 0 -1 27 -81 60 -176 57 -164 71
-191 142 -275 7 -9 -96 295 -143 422 l-19 53 29 25 c41 34 65 101 59 164 -7
69 -45 123 -108 152 l-50 23 0 122 0 123 931 0 c883 0 931 -1 923 -17 -5 -10
-10 -120 -12 -246 l-3 -227 25 -25 c19 -19 35 -25 71 -25 l45 0 0 74 c0 83 2
86 76 86 71 0 84 20 84 133 0 115 -10 129 -100 135 l-60 4 0 48 0 47 242 6
c133 4 394 7 580 7 319 0 338 1 338 18 0 11 -93 108 -220 230 l-219 212 -1203
0 c-662 0 -1208 -4 -1214 -8z m46 -227 l0 -175 -151 0 c-143 0 -150 1 -137 18
69 96 264 332 274 332 11 0 14 -34 14 -175z m199 35 c-74 -77 -135 -140 -136
-140 -2 0 -3 63 -3 140 l0 140 136 0 135 0 -132 -140z m470 93 c-91 -101 -238
-253 -243 -253 -3 0 -6 68 -6 150 l0 150 146 0 147 0 -44 -47z m292 -102 c-77
-82 -148 -154 -156 -161 -13 -11 -15 6 -15 149 l0 161 156 0 156 0 -141 -149z
m502 125 c-10 -12 -74 -81 -141 -152 l-122 -129 0 153 0 152 141 0 140 0 -18
-24z m351 -38 c-125 -134 -235 -248 -239 -248 -3 0 -5 70 -5 155 l0 155 152 0
151 0 -59 -62z m305 -88 c-78 -82 -144 -150 -146 -150 -2 0 -3 68 -3 150 l0
150 146 0 146 0 -143 -150z m423 -30 l173 -169 -182 -1 -183 0 0 170 c0 101 4
170 9 170 6 0 88 -76 183 -170z m-245 -167 c-2 -2 -68 -2 -145 -1 l-141 3 142
151 142 151 3 -150 c1 -82 1 -152 -1 -154z m-1927 147 l0 -150 -146 0 -146 0
93 100 c52 55 114 123 139 150 25 27 48 49 53 49 4 1 7 -66 7 -149z m767 -147
c-2 -2 -67 -2 -145 -1 l-140 3 141 149 142 149 3 -148 c1 -81 1 -150 -1 -152z
m380 0 c-2 -2 -66 -2 -141 -1 l-137 3 138 147 138 148 3 -147 c1 -80 1 -148
-1 -150z m393 147 l0 -150 -146 0 -146 0 143 150 c78 83 144 150 146 150 1 0
3 -67 3 -150z m-1170 -5 c0 -102 -3 -137 -13 -141 -7 -2 -69 -3 -137 -2 l-124
3 130 137 c71 76 132 138 137 138 4 0 7 -61 7 -135z"/>
<path d="M6337 3813 l-87 -88 0 83 0 82 -30 0 -30 0 0 -1635 0 -1635 -55 0
c-30 0 -55 -4 -55 -8 0 -5 17 -51 38 -103 40 -98 118 -299 148 -382 13 -38 21
-47 40 -47 19 0 24 -5 24 -25 l0 -25 -292 2 c-292 3 -293 3 -296 25 -2 16 3
22 19 25 17 2 29 21 55 87 19 46 34 88 34 92 0 5 -178 9 -396 9 -354 0 -395
-2 -384 -15 7 -9 11 -17 9 -18 -2 -1 -14 -11 -26 -21 -19 -15 -25 -16 -38 -6
-8 7 -22 9 -32 6 -10 -4 -30 4 -54 24 l-38 30 -192 -2 -192 -3 -11 -32 c-6
-17 -14 -35 -18 -39 -5 -4 -8 96 -7 222 l0 229 43 145 c26 89 39 147 33 151
-9 7 -3 201 9 261 l6 28 -1246 0 -1246 0 0 -480 0 -480 -106 0 -106 0 7 -37
c14 -79 63 -146 134 -184 l36 -19 -325 1 c-1378 0 -1710 -2 -1710 -11 0 -14
7686 -14 7695 0 4 7 -172 10 -519 10 l-526 0 0 295 0 294 -57 3 -58 3 -3 1631
-2 1632 -23 6 c-63 17 -79 9 -170 -81z m143 -33 l0 -90 -92 0 -93 0 90 90 c49
50 91 90 92 90 2 0 3 -40 3 -90z m-30 -153 c0 -1 -45 -47 -100 -102 l-100
-100 0 103 0 102 100 0 c55 0 100 -1 100 -3z m30 -152 l0 -95 -97 0 -98 0 95
95 c52 52 96 95 97 95 2 0 3 -43 3 -95z m-20 -148 c0 -1 -47 -49 -105 -107
l-105 -105 0 108 0 107 105 0 c58 0 105 -1 105 -3z m20 -157 l0 -90 -97 0 -98
0 95 90 c52 49 96 89 98 90 1 0 2 -40 2 -90z m-30 -153 c0 -1 -45 -47 -100
-102 l-100 -100 0 103 0 102 100 0 c55 0 100 -1 100 -3z m30 -152 l0 -95 -97
0 -98 0 95 95 c52 52 96 95 97 95 2 0 3 -43 3 -95z m-36 -166 c-10 -12 -58
-57 -106 -101 l-88 -80 0 101 0 101 107 0 106 0 -19 -21z m36 -134 l0 -95 -97
0 -98 0 95 95 c52 52 96 95 97 95 2 0 3 -43 3 -95z m-20 -148 c0 -1 -47 -49
-105 -107 l-105 -105 0 108 0 107 105 0 c58 0 105 -1 105 -3z m20 -157 l0 -90
-94 0 -95 0 92 90 c51 49 93 90 95 90 1 0 2 -40 2 -90z m-30 -153 c0 -1 -45
-47 -100 -102 l-100 -100 0 103 0 102 100 0 c55 0 100 -1 100 -3z m30 -152 l0
-95 -97 0 -98 0 95 95 c52 52 96 95 97 95 2 0 3 -43 3 -95z m-105 -236 c-130
-130 -125 -130 -125 -9 l0 100 107 0 108 0 -90 -91z m105 -69 l0 -90 -97 0
-98 0 90 90 c50 49 93 90 98 90 4 0 7 -40 7 -90z m-30 -150 c0 -3 -45 -50
-100 -105 l-100 -100 0 101 c0 55 2 103 4 105 7 6 196 5 196 -1z m30 -150 l0
-90 -92 0 -93 0 90 90 c49 50 91 90 92 90 2 0 3 -40 3 -90z m-30 -153 c0 -1
-45 -47 -100 -102 l-100 -100 0 103 0 102 100 0 c55 0 100 -1 100 -3z m30
-152 l0 -95 -97 0 -98 0 95 95 c52 52 96 95 97 95 2 0 3 -43 3 -95z m-20 -148
c0 -1 -47 -49 -105 -107 l-105 -105 0 108 0 107 105 0 c58 0 105 -1 105 -3z
m20 -172 l0 -105 -105 0 c-58 0 -105 3 -105 8 -1 6 200 201 208 202 1 0 2 -47
2 -105z m-3623 -67 c17 -24 193 -460 193 -480 0 -5 9 -28 21 -53 14 -30 28
-45 40 -45 14 0 19 -7 19 -25 l0 -25 -292 2 -293 3 -3 23 c-3 17 2 22 17 22
24 0 32 14 67 112 42 117 173 442 190 469 8 13 30 11 41 -3z m686 -385 c-29
-2 -78 -2 -110 0 -32 2 -8 3 52 3 61 0 87 -1 58 -3z m775 0 c-27 -2 -69 -2
-95 0 -27 2 -5 3 47 3 52 0 74 -1 48 -3z m100 -108 c24 -7 26 -13 13 -34 -13
-20 -85 -6 -77 15 3 9 6 20 6 25 0 6 8 8 18 5 9 -2 27 -7 40 -11z"/>
<path d="M4085 3571 c-16 -10 -142 -105 -280 -210 -159 -122 -256 -203 -267
-224 -20 -36 -23 -73 -8 -111 11 -29 385 -519 424 -555 37 -35 110 -39 157 -9
99 63 532 405 545 429 8 15 14 48 14 73 0 36 -7 54 -37 93 -274 361 -389 506
-413 518 -40 20 -99 19 -135 -4z m147 -38 c10 -10 105 -133 213 -273 121 -159
197 -267 201 -286 11 -58 -15 -84 -273 -281 -137 -104 -259 -197 -273 -206
-32 -22 -99 -22 -127 1 -11 9 -111 136 -222 281 -183 240 -201 267 -201 303 0
21 4 47 9 57 14 25 526 414 563 427 37 13 83 3 110 -23z"/>
<path d="M4050 3125 c-13 -102 -20 -188 -17 -192 8 -8 100 -22 106 -17 3 2 17
88 31 190 18 127 23 187 16 189 -6 2 -34 6 -62 9 l-50 6 -24 -185z"/>
<path d="M4035 2858 c-27 -15 -35 -28 -35 -60 0 -64 80 -91 119 -42 27 35 26
59 -4 89 -26 27 -49 31 -80 13z"/>
<path d="M2442 3463 c-39 -4 -41 -6 -31 -25 10 -19 12 -20 21 -5 5 10 20 17
33 17 20 0 25 -5 25 -26 0 -17 -6 -28 -20 -31 -13 -3 -20 -14 -20 -29 0 -36
16 -37 44 -3 43 50 48 111 9 107 -10 -1 -37 -3 -61 -5z"/>
<path d="M1858 3149 c-7 -22 22 -263 33 -270 12 -7 48 -11 284 -34 173 -17
225 -19 225 -6 0 5 -43 14 -95 21 -52 7 -95 16 -95 19 0 21 -32 246 -35 250
-4 3 -258 30 -297 31 -9 0 -18 -5 -20 -11z m170 -137 c4 -28 -24 -40 -45 -19
-21 21 -9 49 19 45 15 -2 24 -11 26 -26z"/>
<path d="M1848 2584 c-43 -89 -78 -167 -78 -171 0 -12 109 -65 120 -58 5 3 16
24 25 48 12 33 15 73 13 193 l-3 151 -77 -163z"/>
<path d="M2525 2682 c-24 -14 -62 -18 -191 -20 l-161 -4 -12 -191 c-15 -244
-13 -237 -65 -237 -23 0 -55 -9 -73 -20 -18 -10 -47 -23 -64 -27 -18 -5 -39
-19 -47 -31 l-14 -22 86 0 86 0 0 -245 0 -245 1066 0 c670 0 1063 -4 1059 -9
-3 -6 4 -15 16 -22 19 -10 25 -8 39 11 16 21 18 22 48 6 39 -20 71 -21 78 -1
5 11 23 15 76 15 46 0 67 3 63 11 -4 6 2 13 13 16 14 3 22 17 27 41 9 46 61
98 107 107 44 8 100 -14 124 -50 9 -14 19 -48 22 -76 l5 -49 453 0 454 0 0
433 c0 274 -4 446 -11 470 -13 49 -73 115 -124 138 -37 17 -77 19 -526 19
l-486 0 -116 -87 c-389 -292 -364 -276 -416 -281 -69 -6 -106 15 -171 100 -30
39 -62 79 -71 87 -9 9 -44 53 -78 99 l-63 82 -551 0 c-501 -1 -555 -2 -582
-18z"/>
<path d="M1628 2339 c-10 -5 -18 -14 -18 -19 0 -6 150 -94 201 -118 5 -2 39
74 39 89 0 12 -77 38 -125 42 -27 3 -57 7 -65 11 -8 3 -23 1 -32 -5z"/>
<path d="M4680 1614 c0 -7 5 -16 10 -19 6 -3 10 -1 10 4 0 17 50 13 56 -4 8
-21 -16 -47 -38 -42 -15 4 -18 -1 -18 -29 0 -41 4 -41 45 -10 33 25 63 81 51
93 -4 4 -31 10 -61 13 -40 4 -55 3 -55 -6z"/>
<path d="M1190 1429 c0 -5 -4 -8 -9 -5 -12 8 -111 -66 -144 -109 -16 -19 -43
-66 -60 -103 -30 -63 -32 -73 -32 -182 0 -109 2 -119 32 -183 36 -76 120 -170
182 -206 l41 -22 0 410 c-1 226 -3 411 -5 411 -3 0 -5 -5 -5 -11z"/>
<path d="M4954 1208 c8 -13 33 -88 56 -167 39 -135 41 -146 25 -158 -17 -11
-17 -14 -1 -37 19 -30 21 -77 4 -94 -17 -17 -64 -15 -83 5 -17 16 -17 48 0 86
5 13 2 17 -12 17 -16 0 -27 23 -62 137 -63 202 -65 202 -80 11 -7 -88 -17
-171 -22 -185 -7 -19 -1 -57 25 -155 l35 -130 116 -118 c63 -65 115 -123 115
-129 0 -8 98 -11 325 -11 l325 0 0 475 0 475 -390 0 -390 0 14 -22z"/>
<path d="M4670 641 c-63 -94 -81 -131 -115 -236 l-40 -125 181 0 182 0 -64 61
-64 62 -2 175 -3 175 -75 -112z"/>
</g>
</svg>
