<?xml version="1.0" standalone="no"?>
<!DOCTYPE svg PUBLIC "-//W3C//DTD SVG 20010904//EN"
 "http://www.w3.org/TR/2001/REC-SVG-20010904/DTD/svg10.dtd">
<svg version="1.0" xmlns="http://www.w3.org/2000/svg"
 width="512.000000pt" height="512.000000pt" viewBox="0 0 512.000000 512.000000"
 preserveAspectRatio="xMidYMid meet">

<g transform="translate(0.000000,512.000000) scale(0.100000,-0.100000)"
fill="#000000" stroke="none">
<path d="M1693 4730 c-67 -14 -147 -59 -196 -109 -33 -33 -136 -202 -358 -586
-172 -297 -320 -561 -330 -586 -55 -142 -19 -306 90 -412 32 -32 204 -137 586
-357 297 -171 544 -315 549 -320 11 -11 -144 -281 -188 -329 -17 -18 -53 -44
-81 -57 -50 -24 -53 -24 -387 -24 l-338 0 0 248 c0 208 -2 251 -16 270 -15 22
-19 22 -225 22 l-209 0 0 68 c0 144 -59 246 -176 303 -67 33 -67 33 -221 34
-151 0 -155 -1 -174 -24 -18 -23 -19 -56 -19 -1233 l0 -1209 26 -26 c25 -25
25 -25 177 -22 142 4 156 6 209 32 65 32 121 90 151 156 18 39 22 69 25 193
l4 147 205 3 c264 4 243 -16 243 233 l0 184 388 3 387 4 90 28 c160 49 302
139 409 258 31 35 104 143 162 241 74 124 110 177 120 173 8 -3 146 -82 307
-175 161 -93 314 -176 340 -185 107 -36 257 -13 350 54 l44 31 64 -22 c200
-68 436 -11 594 144 l60 59 40 -22 c133 -73 132 -72 161 -58 21 10 91 123 296
478 147 256 268 474 268 485 0 12 -6 29 -12 38 -7 9 -272 165 -588 348 -316
182 -1027 593 -1579 911 -553 319 -1022 586 -1043 594 -52 18 -153 25 -205 14z
m190 -161 c60 -31 3051 -1759 3060 -1768 5 -5 -92 -182 -214 -394 l-223 -386
-41 23 c-366 210 -2944 1699 -3133 1808 -56 33 -100 63 -98 66 2 4 63 111 136
237 203 353 215 371 267 401 24 15 59 30 76 35 46 11 124 1 170 -22z m-183
-1091 c261 -151 833 -481 1270 -733 437 -252 799 -462 804 -466 9 -8 -158
-310 -214 -387 -59 -83 -199 -117 -295 -73 -22 10 -344 194 -715 408 -371 214
-864 499 -1095 632 -231 133 -435 257 -453 274 -67 63 -94 154 -72 237 11 39
78 164 197 363 l35 58 31 -20 c18 -10 246 -143 507 -293z m-1391 -727 c54 -11
90 -37 118 -87 l23 -39 0 -982 c0 -671 -3 -991 -11 -1010 -28 -76 -99 -112
-216 -113 l-83 0 0 1120 0 1120 63 0 c34 -1 82 -5 106 -9z m591 -1051 l0 -650
-155 0 -155 0 0 650 0 650 155 0 155 0 0 -650z m1419 499 c78 -45 141 -84 139
-88 -2 -4 -46 -81 -98 -172 -81 -139 -108 -177 -180 -249 -97 -97 -163 -139
-287 -184 l-88 -31 -382 -3 -383 -3 0 170 0 170 358 3 c347 3 359 4 414 26 95
38 151 99 258 281 52 88 98 161 101 161 4 0 71 -36 148 -81z m1754 -91 l160
-92 -51 -47 c-84 -77 -192 -119 -302 -118 -66 1 -151 20 -151 34 0 11 173 315
180 315 2 0 76 -41 164 -92z"/>
<path d="M4245 2885 c-58 -22 -106 -65 -138 -124 -99 -181 30 -394 237 -393
75 1 124 21 181 73 130 120 104 334 -52 426 -56 33 -165 41 -228 18z m187
-164 c33 -37 42 -69 34 -115 -14 -71 -103 -120 -169 -92 -98 40 -112 172 -25
226 50 32 122 23 160 -19z"/>
<path d="M1165 3425 c-29 -29 -32 -55 -7 -84 24 -30 601 -361 629 -361 50 0
82 72 51 112 -20 25 -604 358 -628 358 -11 0 -32 -11 -45 -25z"/>
</g>
</svg>
