<?xml version="1.0" standalone="no"?>
<!DOCTYPE svg PUBLIC "-//W3C//DTD SVG 20010904//EN"
 "http://www.w3.org/TR/2001/REC-SVG-20010904/DTD/svg10.dtd">
<svg version="1.0" xmlns="http://www.w3.org/2000/svg"
 width="512.000000pt" height="512.000000pt" viewBox="0 0 512.000000 512.000000"
 preserveAspectRatio="xMidYMid meet">

<g transform="translate(0.000000,512.000000) scale(0.100000,-0.100000)"
fill="#000000" stroke="none">
<path d="M1538 5105 c-494 -68 -930 -380 -1157 -828 -291 -575 -198 -1263 260
-1907 136 -192 325 -402 517 -573 122 -110 124 -112 102 -127 -151 -103 -221
-261 -176 -396 91 -274 589 -416 990 -283 155 52 277 143 327 246 35 70 34
177 -2 254 -31 67 -88 132 -145 169 l-42 26 70 59 c39 33 146 138 239 233
l169 172 0 -894 c0 -858 1 -897 19 -957 38 -120 113 -203 239 -262 l67 -32
749 -3 c515 -2 766 1 803 8 171 36 304 176 332 351 7 42 11 508 11 1354 0
1383 0 1367 -50 1466 -28 54 -111 142 -164 173 -96 56 -95 56 -782 56 l-633 0
0 158 c1 226 -32 401 -112 602 -148 370 -472 688 -859 844 -225 91 -517 126
-772 91z m363 -165 c452 -52 851 -327 1057 -728 65 -125 116 -278 137 -402 15
-97 21 -367 7 -385 -4 -6 -34 -16 -67 -23 -160 -32 -278 -138 -326 -293 -17
-54 -19 -95 -19 -369 l0 -309 -51 -63 c-221 -276 -491 -532 -778 -737 l-112
-80 -72 51 c-560 397 -993 906 -1177 1383 -131 342 -149 711 -49 1017 131 403
447 727 843 867 202 72 400 95 607 71z m1226 -1823 c34 -69 70 -126 94 -149
71 -67 87 -69 600 -66 444 3 455 3 494 25 62 33 98 79 159 200 l55 111 37 -11
c54 -16 129 -89 151 -145 17 -45 18 -114 18 -1382 l0 -1335 -24 -48 c-13 -26
-42 -63 -64 -82 -79 -68 -53 -66 -868 -63 -731 3 -734 3 -775 25 -50 27 -97
75 -121 122 -17 34 -18 109 -21 1370 -1 898 1 1346 8 1372 16 58 68 119 129
151 29 15 57 25 62 22 5 -3 35 -56 66 -117z m1178 54 c-19 -38 -45 -77 -57
-85 -20 -14 -77 -16 -445 -16 -307 0 -429 3 -448 12 -18 8 -39 35 -61 80 -19
37 -34 70 -34 73 0 3 243 5 540 5 l540 0 -35 -69z m-2826 -1638 c20 -16 81
-58 135 -95 134 -91 141 -91 281 7 59 41 119 84 133 96 32 25 57 20 129 -28
59 -39 103 -103 103 -150 0 -31 -35 -92 -73 -125 -33 -29 -154 -85 -222 -103
-83 -22 -254 -30 -345 -16 -287 44 -448 194 -351 328 28 38 59 62 126 97 40
21 42 20 84 -11z"/>
<path d="M1610 4513 c-375 -62 -673 -332 -771 -698 -31 -114 -32 -346 -1 -456
102 -372 392 -641 756 -699 107 -18 310 -8 406 20 182 52 367 174 481 318 76
98 152 251 181 367 31 126 31 314 0 439 -90 364 -385 640 -756 705 -57 11
-243 13 -296 4z m298 -179 c121 -24 262 -98 356 -185 171 -159 250 -338 249
-564 0 -129 -18 -213 -68 -323 -180 -388 -649 -555 -1033 -366 -154 75 -277
200 -353 359 -57 119 -73 190 -73 330 0 136 21 229 75 338 85 169 223 298 395
370 131 55 305 71 452 41z"/>
<path d="M3610 2447 c-80 -25 -160 -63 -200 -95 l-24 -19 -39 28 c-51 37 -81
37 -118 0 -36 -36 -37 -67 -3 -117 25 -36 25 -39 9 -64 -33 -51 -85 -167 -100
-225 -19 -75 -19 -240 0 -321 17 -75 54 -159 93 -216 l30 -44 -29 -32 c-36
-40 -38 -81 -5 -118 32 -38 86 -37 126 1 l29 27 30 -21 c95 -68 269 -121 393
-121 119 1 261 42 356 105 l54 35 32 -25 c96 -73 193 26 120 122 -23 31 -24
36 -11 51 29 33 76 128 96 196 58 189 28 400 -81 568 l-30 48 26 31 c41 49 34
109 -16 135 -37 19 -78 11 -108 -21 l-22 -23 -63 40 c-111 69 -190 91 -340 95
-113 3 -140 0 -205 -20z m315 -161 c41 -11 149 -58 164 -72 2 -2 -3 -12 -12
-22 -31 -34 -32 -75 -2 -110 30 -36 75 -43 113 -16 28 19 37 14 67 -47 39 -76
58 -172 52 -260 -6 -79 -43 -195 -77 -239 -18 -23 -19 -24 -38 -7 -27 25 -84
22 -109 -5 -31 -35 -35 -60 -14 -101 l19 -37 -33 -20 c-139 -86 -344 -89 -496
-9 l-58 32 19 25 c61 76 -37 173 -118 116 -13 -9 -24 -14 -26 -13 -103 139
-115 363 -30 532 27 52 31 54 60 32 28 -21 77 -18 102 5 32 30 38 67 17 107
-21 38 -21 37 40 70 93 51 253 68 360 39z"/>
<path d="M3760 1867 c-14 -7 -31 -25 -38 -41 -40 -82 68 -156 133 -91 37 36
34 86 -6 119 -34 29 -52 32 -89 13z"/>
<path d="M3148 490 c-14 -11 -28 -31 -30 -44 -7 -36 17 -85 47 -96 16 -6 259
-10 641 -10 l616 0 29 29 c16 16 29 39 29 51 0 29 -26 76 -45 84 -9 3 -297 6
-639 6 -606 0 -624 -1 -648 -20z"/>
</g>
</svg>
